<?xml version="1.0" encoding="UTF-8"?>
<svg width="1778px" height="753px" viewBox="0 0 1778 753" version="1.1" xmlns="http://www.w3.org/2000/svg" xmlns:xlink="http://www.w3.org/1999/xlink">
    <!-- Generator: Sketch 50.2 (55047) - http://www.bohemiancoding.com/sketch -->
    <title>Fort Carre - #10 Copy</title>
    <desc>Created with Sketch.</desc>
    <defs></defs>
    <g id="Fort-Carre---#10-Copy" stroke="none" stroke-width="1" fill="none" fill-rule="evenodd">
        <g id="Group" transform="translate(1060.000000, 31.000000)" fill="#000000">
            <polygon id="Fill-2" points="276 28 304 28 304 0 276 0"></polygon>
            <polygon id="Fill-3" points="414 28 442 28 442 0 414 0"></polygon>
            <polygon id="Fill-4" points="221 56 304 56 304 28 221 28"></polygon>
            <polygon id="Fill-5" points="358 56 413 56 413 28 358 28"></polygon>
            <polygon id="Fill-6" points="442 56 470 56 470 28 442 28"></polygon>
            <polygon id="Fill-7" points="221 83 249 83 249 55 221 55"></polygon>
            <polygon id="Fill-8" points="414 83 469 83 469 55 414 55"></polygon>
            <polygon id="Fill-9" points="248 111 276 111 276 83 248 83"></polygon>
            <polygon id="Fill-10" points="332 111 360 111 360 83 332 83"></polygon>
            <polygon id="Fill-11" points="414 111 469 111 469 83 414 83"></polygon>
            <polygon id="Fill-12" points="221 139 304 139 304 111 221 111"></polygon>
            <polygon id="Fill-13" points="332 139 415 139 415 111 332 111"></polygon>
            <polygon id="Fill-14" points="442 139 470 139 470 111 442 111"></polygon>
            <polygon id="Fill-15" points="221 166 249 166 249 138 221 138"></polygon>
            <polygon id="Fill-16" points="276 166 304 166 304 138 276 138"></polygon>
            <polygon id="Fill-17" points="332 166 360 166 360 138 332 138"></polygon>
            <polygon id="Fill-18" points="414 166 442 166 442 138 414 138"></polygon>
            <polygon id="Fill-19" points="221 193 249 193 249 165 221 165"></polygon>
            <polygon id="Fill-20" points="276 193 304 193 304 165 276 165"></polygon>
            <polygon id="Fill-21" points="332 193 360 193 360 165 332 165"></polygon>
            <polygon id="Fill-22" points="386 193 414 193 414 165 386 165"></polygon>
            <polygon id="Fill-23" points="442 193 470 193 470 165 442 165"></polygon>
            <polygon id="Fill-24" points="221 221 249 221 249 193 221 193"></polygon>
            <polygon id="Fill-25" points="276 221 331 221 331 193 276 193"></polygon>
            <polygon id="Fill-26" points="0 249 55 249 55 221 0 221"></polygon>
            <polygon id="Fill-27" points="83 249 111 249 111 221 83 221"></polygon>
            <polygon id="Fill-28" points="165 249 220 249 220 221 165 221"></polygon>
            <polygon id="Fill-29" points="304 249 387 249 387 221 304 221"></polygon>
            <polygon id="Fill-30" points="442 249 470 249 470 221 442 221"></polygon>
            <polygon id="Fill-31" points="497 249 580 249 580 221 497 221"></polygon>
            <polygon id="Fill-32" points="607 249 662 249 662 221 607 221"></polygon>
            <polygon id="Fill-33" points="0 276 28 276 28 248 0 248"></polygon>
            <polygon id="Fill-34" points="138 276 166 276 166 248 138 248"></polygon>
            <polygon id="Fill-35" points="193 276 221 276 221 248 193 248"></polygon>
            <polygon id="Fill-36" points="248 276 276 276 276 248 248 248"></polygon>
            <polygon id="Fill-37" points="304 276 387 276 387 248 304 248"></polygon>
            <polygon id="Fill-38" points="414 276 469 276 469 248 414 248"></polygon>
            <polygon id="Fill-39" points="497 276 525 276 525 248 497 248"></polygon>
            <polygon id="Fill-40" points="552 276 580 276 580 248 552 248"></polygon>
            <polygon id="Fill-41" points="635 276 663 276 663 248 635 248"></polygon>
            <polygon id="Fill-42" points="83 304 193 304 193 276 83 276"></polygon>
            <polygon id="Fill-43" points="221 304 249 304 249 276 221 276"></polygon>
            <polygon id="Fill-44" points="304 304 359 304 359 276 304 276"></polygon>
            <polygon id="Fill-45" points="469 304 552 304 552 276 469 276"></polygon>
            <polygon id="Fill-46" points="579 304 634 304 634 276 579 276"></polygon>
            <polygon id="Fill-47" points="83 332 166 332 166 304 83 304"></polygon>
            <polygon id="Fill-48" points="193 332 221 332 221 304 193 304"></polygon>
            <polygon id="Fill-49" points="248 332 413 332 413 304 248 304"></polygon>
            <polygon id="Fill-50" points="442 332 580 332 580 304 442 304"></polygon>
            <polygon id="Fill-51" points="662 332 690 332 690 304 662 304"></polygon>
            <polygon id="Fill-52" points="28 360 83 360 83 332 28 332"></polygon>
            <polygon id="Fill-53" points="111 360 249 360 249 332 111 332"></polygon>
            <polygon id="Fill-54" points="276 360 331 360 331 332 276 332"></polygon>
            <polygon id="Fill-55" points="358 360 386 360 386 332 358 332"></polygon>
            <polygon id="Fill-56" points="442 360 470 360 470 332 442 332"></polygon>
            <polygon id="Fill-57" points="497 360 552 360 552 332 497 332"></polygon>
            <polygon id="Fill-58" points="607 360 690 360 690 332 607 332"></polygon>
            <polygon id="Fill-59" points="55 386 83 386 83 358 55 358"></polygon>
            <polygon id="Fill-60" points="138 386 166 386 166 358 138 358"></polygon>
            <polygon id="Fill-61" points="221 386 249 386 249 358 221 358"></polygon>
            <polygon id="Fill-62" points="304 386 332 386 332 358 304 358"></polygon>
            <polygon id="Fill-63" points="386 386 414 386 414 358 386 358"></polygon>
            <polygon id="Fill-64" points="525 386 580 386 580 358 525 358"></polygon>
            <polygon id="Fill-65" points="607 386 690 386 690 358 607 358"></polygon>
            <polygon id="Fill-66" points="0 414 28 414 28 386 0 386"></polygon>
            <polygon id="Fill-67" points="55 414 138 414 138 386 55 386"></polygon>
            <polygon id="Fill-68" points="165 414 193 414 193 386 165 386"></polygon>
            <polygon id="Fill-69" points="221 414 331 414 331 386 221 386"></polygon>
            <polygon id="Fill-70" points="386 414 469 414 469 386 386 386"></polygon>
            <polygon id="Fill-71" points="497 414 525 414 525 386 497 386"></polygon>
            <polygon id="Fill-72" points="552 414 607 414 607 386 552 386"></polygon>
            <polygon id="Fill-73" points="662 414 690 414 690 386 662 386"></polygon>
            <polygon id="Fill-74" points="28 442 56 442 56 414 28 414"></polygon>
            <polygon id="Fill-75" points="111 442 139 442 139 414 111 414"></polygon>
            <polygon id="Fill-76" points="193 442 221 442 221 414 193 414"></polygon>
            <polygon id="Fill-77" points="248 442 331 442 331 414 248 414"></polygon>
            <polygon id="Fill-78" points="497 442 552 442 552 414 497 414"></polygon>
            <polygon id="Fill-79" points="0 470 221 470 221 442 0 442"></polygon>
            <polygon id="Fill-80" points="248 470 276 470 276 442 248 442"></polygon>
            <polygon id="Fill-81" points="332 470 387 470 387 442 332 442"></polygon>
            <polygon id="Fill-82" points="442 470 580 470 580 442 442 442"></polygon>
            <polygon id="Fill-83" points="662 470 690 470 690 442 662 442"></polygon>
            <polygon id="Fill-84" points="221 497 249 497 249 469 221 469"></polygon>
            <polygon id="Fill-85" points="276 497 304 497 304 469 276 469"></polygon>
            <polygon id="Fill-86" points="332 497 415 497 415 469 332 469"></polygon>
            <polygon id="Fill-87" points="442 497 470 497 470 469 442 469"></polygon>
            <polygon id="Fill-88" points="552 497 580 497 580 469 552 469"></polygon>
            <polygon id="Fill-89" points="221 525 249 525 249 497 221 497"></polygon>
            <polygon id="Fill-90" points="304 525 387 525 387 497 304 497"></polygon>
            <polygon id="Fill-91" points="414 525 469 525 469 497 414 497"></polygon>
            <polygon id="Fill-92" points="497 525 525 525 525 497 497 497"></polygon>
            <polygon id="Fill-93" points="552 525 607 525 607 497 552 497"></polygon>
            <polygon id="Fill-94" points="635 525 690 525 690 497 635 497"></polygon>
            <polygon id="Fill-95" points="276 553 304 553 304 525 276 525"></polygon>
            <polygon id="Fill-96" points="332 553 415 553 415 525 332 525"></polygon>
            <polygon id="Fill-97" points="442 553 470 553 470 525 442 525"></polygon>
            <polygon id="Fill-98" points="552 553 690 553 690 525 552 525"></polygon>
            <polygon id="Fill-99" points="248 580 276 580 276 552 248 552"></polygon>
            <polygon id="Fill-100" points="332 580 360 580 360 552 332 552"></polygon>
            <polygon id="Fill-101" points="414 580 579 580 579 552 414 552"></polygon>
            <polygon id="Fill-102" points="607 580 662 580 662 552 607 552"></polygon>
            <polygon id="Fill-103" points="221 607 276 607 276 579 221 579"></polygon>
            <polygon id="Fill-104" points="304 607 332 607 332 579 304 579"></polygon>
            <polygon id="Fill-105" points="358 607 386 607 386 579 358 579"></polygon>
            <polygon id="Fill-106" points="414 607 497 607 497 579 414 579"></polygon>
            <polygon id="Fill-107" points="525 607 580 607 580 579 525 579"></polygon>
            <polygon id="Fill-108" points="248 635 276 635 276 607 248 607"></polygon>
            <polygon id="Fill-109" points="332 635 360 635 360 607 332 607"></polygon>
            <polygon id="Fill-110" points="414 635 442 635 442 607 414 607"></polygon>
            <polygon id="Fill-111" points="525 635 553 635 553 607 525 607"></polygon>
            <polygon id="Fill-112" points="579 635 634 635 634 607 579 607"></polygon>
            <polygon id="Fill-113" points="662 635 690 635 690 607 662 607"></polygon>
            <polygon id="Fill-114" points="221 663 276 663 276 635 221 635"></polygon>
            <polygon id="Fill-115" points="442 663 497 663 497 635 442 635"></polygon>
            <polygon id="Fill-116" points="579 663 607 663 607 635 579 635"></polygon>
            <polygon id="Fill-117" points="635 663 690 663 690 635 635 635"></polygon>
            <polygon id="Fill-118" points="221 690 304 690 304 662 221 662"></polygon>
            <polygon id="Fill-119" points="332 690 415 690 415 662 332 662"></polygon>
            <polygon id="Fill-120" points="442 690 470 690 470 662 442 662"></polygon>
            <polygon id="Fill-121" points="552 690 607 690 607 662 552 662"></polygon>
            <polygon id="Fill-122" points="635 690 690 690 690 662 635 662"></polygon>
            <polygon id="Fill-123" points="0 28 193 28 193 0 0 0"></polygon>
            <polygon id="Fill-124" points="0 166 28 166 28 28 0 28"></polygon>
            <polygon id="Fill-125" points="165 166 193 166 193 28 165 28"></polygon>
            <polygon id="Fill-126" points="0 193 193 193 193 165 0 165"></polygon>
            <polygon id="Fill-127" points="0 28 193 28 193 0 0 0"></polygon>
            <polygon id="Fill-128" points="0 56 28 56 28 28 0 28"></polygon>
            <polygon id="Fill-129" points="165 56 193 56 193 28 165 28"></polygon>
            <polygon id="Fill-130" points="0 83 28 83 28 55 0 55"></polygon>
            <polygon id="Fill-131" points="165 83 193 83 193 55 165 55"></polygon>
            <polygon id="Fill-132" points="0 111 28 111 28 83 0 83"></polygon>
            <polygon id="Fill-133" points="165 111 193 111 193 83 165 83"></polygon>
            <polygon id="Fill-134" points="0 139 28 139 28 111 0 111"></polygon>
            <polygon id="Fill-135" points="165 139 193 139 193 111 165 111"></polygon>
            <polygon id="Fill-136" points="0 166 28 166 28 138 0 138"></polygon>
            <polygon id="Fill-137" points="165 166 193 166 193 138 165 138"></polygon>
            <polygon id="Fill-138" points="0 193 193 193 193 165 0 165"></polygon>
            <polygon id="Fill-139" points="55 138 138 138 138 55 55 55"></polygon>
            <polygon id="Fill-140" points="497 28 690 28 690 0 497 0"></polygon>
            <polygon id="Fill-141" points="497 166 525 166 525 28 497 28"></polygon>
            <polygon id="Fill-142" points="662 166 690 166 690 28 662 28"></polygon>
            <polygon id="Fill-143" points="497 193 690 193 690 165 497 165"></polygon>
            <polygon id="Fill-144" points="497 28 690 28 690 0 497 0"></polygon>
            <polygon id="Fill-145" points="497 56 525 56 525 28 497 28"></polygon>
            <polygon id="Fill-146" points="662 56 690 56 690 28 662 28"></polygon>
            <polygon id="Fill-147" points="497 83 525 83 525 55 497 55"></polygon>
            <polygon id="Fill-148" points="662 83 690 83 690 55 662 55"></polygon>
            <polygon id="Fill-149" points="497 111 525 111 525 83 497 83"></polygon>
            <polygon id="Fill-150" points="662 111 690 111 690 83 662 83"></polygon>
            <polygon id="Fill-151" points="497 139 525 139 525 111 497 111"></polygon>
            <polygon id="Fill-152" points="662 139 690 139 690 111 662 111"></polygon>
            <polygon id="Fill-153" points="497 166 525 166 525 138 497 138"></polygon>
            <polygon id="Fill-154" points="662 166 690 166 690 138 662 138"></polygon>
            <polygon id="Fill-155" points="497 193 690 193 690 165 497 165"></polygon>
            <polygon id="Fill-156" points="552 138 635 138 635 55 552 55"></polygon>
            <polygon id="Fill-157" points="0 525 193 525 193 497 0 497"></polygon>
            <polygon id="Fill-158" points="0 663 28 663 28 525 0 525"></polygon>
            <polygon id="Fill-159" points="165 663 193 663 193 525 165 525"></polygon>
            <polygon id="Fill-160" points="0 690 193 690 193 662 0 662"></polygon>
            <polygon id="Fill-161" points="0 525 193 525 193 497 0 497"></polygon>
            <polygon id="Fill-162" points="0 553 28 553 28 525 0 525"></polygon>
            <polygon id="Fill-163" points="165 553 193 553 193 525 165 525"></polygon>
            <polygon id="Fill-164" points="0 580 28 580 28 552 0 552"></polygon>
            <polygon id="Fill-165" points="165 580 193 580 193 552 165 552"></polygon>
            <polygon id="Fill-166" points="0 607 28 607 28 579 0 579"></polygon>
            <polygon id="Fill-167" points="165 607 193 607 193 579 165 579"></polygon>
            <polygon id="Fill-168" points="0 635 28 635 28 607 0 607"></polygon>
            <polygon id="Fill-169" points="165 635 193 635 193 607 165 607"></polygon>
            <polygon id="Fill-170" points="0 663 28 663 28 635 0 635"></polygon>
            <polygon id="Fill-171" points="165 663 193 663 193 635 165 635"></polygon>
            <polygon id="Fill-172" points="0 690 193 690 193 662 0 662"></polygon>
            <polygon id="Fill-173" points="55 635 138 635 138 552 55 552"></polygon>
        </g>
    </g>
</svg>