<?xml version="1.0" encoding="UTF-8"?>
<svg width="1778px" height="753px" viewBox="0 0 1778 753" version="1.1" xmlns="http://www.w3.org/2000/svg" xmlns:xlink="http://www.w3.org/1999/xlink">
    <!-- Generator: Sketch 50.2 (55047) - http://www.bohemiancoding.com/sketch -->
    <title>antibes qr code</title>
    <desc>Created with Sketch.</desc>
    <defs></defs>
    <g id="antibes-qr-code" stroke="none" stroke-width="1" fill="none" fill-rule="evenodd">
        <g id="Group" transform="translate(1082.000000, 86.000000)" fill="#000000">
            <polygon id="Fill-2" points="232 24 256 24 256 0 232 0"></polygon>
            <polygon id="Fill-3" points="349 24 373 24 373 0 349 0"></polygon>
            <polygon id="Fill-4" points="186 48 256 48 256 24 186 24"></polygon>
            <polygon id="Fill-5" points="301 48 347 48 347 24 301 24"></polygon>
            <polygon id="Fill-6" points="372 48 396 48 396 24 372 24"></polygon>
            <polygon id="Fill-7" points="186 70 210 70 210 46 186 46"></polygon>
            <polygon id="Fill-8" points="349 70 395 70 395 46 349 46"></polygon>
            <polygon id="Fill-9" points="209 94 233 94 233 70 209 70"></polygon>
            <polygon id="Fill-10" points="280 94 304 94 304 70 280 70"></polygon>
            <polygon id="Fill-11" points="349 94 395 94 395 70 349 70"></polygon>
            <polygon id="Fill-12" points="186 117 256 117 256 93 186 93"></polygon>
            <polygon id="Fill-13" points="280 117 350 117 350 93 280 93"></polygon>
            <polygon id="Fill-14" points="372 117 396 117 396 93 372 93"></polygon>
            <polygon id="Fill-15" points="186 140 210 140 210 116 186 116"></polygon>
            <polygon id="Fill-16" points="232 140 256 140 256 116 232 116"></polygon>
            <polygon id="Fill-17" points="280 140 304 140 304 116 280 116"></polygon>
            <polygon id="Fill-18" points="349 140 373 140 373 116 349 116"></polygon>
            <polygon id="Fill-19" points="186 163 210 163 210 139 186 139"></polygon>
            <polygon id="Fill-20" points="232 163 256 163 256 139 232 139"></polygon>
            <polygon id="Fill-21" points="280 163 304 163 304 139 280 139"></polygon>
            <polygon id="Fill-22" points="325 163 349 163 349 139 325 139"></polygon>
            <polygon id="Fill-23" points="372 163 396 163 396 139 372 139"></polygon>
            <polygon id="Fill-24" points="186 187 210 187 210 163 186 163"></polygon>
            <polygon id="Fill-25" points="232 187 278 187 278 163 232 163"></polygon>
            <polygon id="Fill-26" points="0 210 46 210 46 186 0 186"></polygon>
            <polygon id="Fill-27" points="70 210 94 210 94 186 70 186"></polygon>
            <polygon id="Fill-28" points="139 210 185 210 185 186 139 186"></polygon>
            <polygon id="Fill-29" points="256 210 326 210 326 186 256 186"></polygon>
            <polygon id="Fill-30" points="372 210 396 210 396 186 372 186"></polygon>
            <polygon id="Fill-31" points="418 210 488 210 488 186 418 186"></polygon>
            <polygon id="Fill-32" points="511 210 557 210 557 186 511 186"></polygon>
            <polygon id="Fill-33" points="0 233 24 233 24 209 0 209"></polygon>
            <polygon id="Fill-34" points="116 233 140 233 140 209 116 209"></polygon>
            <polygon id="Fill-35" points="163 233 187 233 187 209 163 209"></polygon>
            <polygon id="Fill-36" points="209 233 233 233 233 209 209 209"></polygon>
            <polygon id="Fill-37" points="256 233 326 233 326 209 256 209"></polygon>
            <polygon id="Fill-38" points="349 233 395 233 395 209 349 209"></polygon>
            <polygon id="Fill-39" points="418 233 442 233 442 209 418 209"></polygon>
            <polygon id="Fill-40" points="465 233 489 233 489 209 465 209"></polygon>
            <polygon id="Fill-41" points="535 233 559 233 559 209 535 209"></polygon>
            <polygon id="Fill-42" points="70 256 163 256 163 232 70 232"></polygon>
            <polygon id="Fill-43" points="186 256 210 256 210 232 186 232"></polygon>
            <polygon id="Fill-44" points="256 256 302 256 302 232 256 232"></polygon>
            <polygon id="Fill-45" points="395 256 465 256 465 232 395 232"></polygon>
            <polygon id="Fill-46" points="488 256 534 256 534 232 488 232"></polygon>
            <polygon id="Fill-47" points="70 280 140 280 140 256 70 256"></polygon>
            <polygon id="Fill-48" points="163 280 187 280 187 256 163 256"></polygon>
            <polygon id="Fill-49" points="209 280 348 280 348 256 209 256"></polygon>
            <polygon id="Fill-50" points="372 280 488 280 488 256 372 256"></polygon>
            <polygon id="Fill-51" points="557 280 581 280 581 256 557 256"></polygon>
            <polygon id="Fill-52" points="24 304 70 304 70 280 24 280"></polygon>
            <polygon id="Fill-53" points="93 304 209 304 209 280 93 280"></polygon>
            <polygon id="Fill-54" points="232 304 278 304 278 280 232 280"></polygon>
            <polygon id="Fill-55" points="301 304 325 304 325 280 301 280"></polygon>
            <polygon id="Fill-56" points="372 304 396 304 396 280 372 280"></polygon>
            <polygon id="Fill-57" points="418 304 464 304 464 280 418 280"></polygon>
            <polygon id="Fill-58" points="511 304 581 304 581 280 511 280"></polygon>
            <polygon id="Fill-59" points="46 325 70 325 70 301 46 301"></polygon>
            <polygon id="Fill-60" points="116 325 140 325 140 301 116 301"></polygon>
            <polygon id="Fill-61" points="186 325 210 325 210 301 186 301"></polygon>
            <polygon id="Fill-62" points="256 325 280 325 280 301 256 301"></polygon>
            <polygon id="Fill-63" points="325 325 349 325 349 301 325 301"></polygon>
            <polygon id="Fill-64" points="442 325 488 325 488 301 442 301"></polygon>
            <polygon id="Fill-65" points="511 325 581 325 581 301 511 301"></polygon>
            <polygon id="Fill-66" points="0 349 24 349 24 325 0 325"></polygon>
            <polygon id="Fill-67" points="46 349 116 349 116 325 46 325"></polygon>
            <polygon id="Fill-68" points="139 349 163 349 163 325 139 325"></polygon>
            <polygon id="Fill-69" points="186 349 279 349 279 325 186 325"></polygon>
            <polygon id="Fill-70" points="325 349 395 349 395 325 325 325"></polygon>
            <polygon id="Fill-71" points="418 349 442 349 442 325 418 325"></polygon>
            <polygon id="Fill-72" points="465 349 511 349 511 325 465 325"></polygon>
            <polygon id="Fill-73" points="557 349 581 349 581 325 557 325"></polygon>
            <polygon id="Fill-74" points="24 373 48 373 48 349 24 349"></polygon>
            <polygon id="Fill-75" points="93 373 117 373 117 349 93 349"></polygon>
            <polygon id="Fill-76" points="163 373 187 373 187 349 163 349"></polygon>
            <polygon id="Fill-77" points="209 373 279 373 279 349 209 349"></polygon>
            <polygon id="Fill-78" points="418 373 464 373 464 349 418 349"></polygon>
            <polygon id="Fill-79" points="0 396 186 396 186 372 0 372"></polygon>
            <polygon id="Fill-80" points="209 396 233 396 233 372 209 372"></polygon>
            <polygon id="Fill-81" points="280 396 326 396 326 372 280 372"></polygon>
            <polygon id="Fill-82" points="372 396 488 396 488 372 372 372"></polygon>
            <polygon id="Fill-83" points="557 396 581 396 581 372 557 372"></polygon>
            <polygon id="Fill-84" points="186 419 210 419 210 395 186 395"></polygon>
            <polygon id="Fill-85" points="232 419 256 419 256 395 232 395"></polygon>
            <polygon id="Fill-86" points="280 419 350 419 350 395 280 395"></polygon>
            <polygon id="Fill-87" points="372 419 396 419 396 395 372 395"></polygon>
            <polygon id="Fill-88" points="465 419 489 419 489 395 465 395"></polygon>
            <polygon id="Fill-89" points="186 442 210 442 210 418 186 418"></polygon>
            <polygon id="Fill-90" points="256 442 326 442 326 418 256 418"></polygon>
            <polygon id="Fill-91" points="349 442 395 442 395 418 349 418"></polygon>
            <polygon id="Fill-92" points="418 442 442 442 442 418 418 418"></polygon>
            <polygon id="Fill-93" points="465 442 511 442 511 418 465 418"></polygon>
            <polygon id="Fill-94" points="535 442 581 442 581 418 535 418"></polygon>
            <polygon id="Fill-95" points="232 466 256 466 256 442 232 442"></polygon>
            <polygon id="Fill-96" points="280 466 350 466 350 442 280 442"></polygon>
            <polygon id="Fill-97" points="372 466 396 466 396 442 372 442"></polygon>
            <polygon id="Fill-98" points="465 466 581 466 581 442 465 442"></polygon>
            <polygon id="Fill-99" points="209 489 233 489 233 465 209 465"></polygon>
            <polygon id="Fill-100" points="280 489 304 489 304 465 280 465"></polygon>
            <polygon id="Fill-101" points="349 489 488 489 488 465 349 465"></polygon>
            <polygon id="Fill-102" points="511 489 557 489 557 465 511 465"></polygon>
            <polygon id="Fill-103" points="186 512 232 512 232 488 186 488"></polygon>
            <polygon id="Fill-104" points="256 512 280 512 280 488 256 488"></polygon>
            <polygon id="Fill-105" points="301 512 325 512 325 488 301 488"></polygon>
            <polygon id="Fill-106" points="349 512 419 512 419 488 349 488"></polygon>
            <polygon id="Fill-107" points="442 512 488 512 488 488 442 488"></polygon>
            <polygon id="Fill-108" points="209 535 233 535 233 511 209 511"></polygon>
            <polygon id="Fill-109" points="280 535 304 535 304 511 280 511"></polygon>
            <polygon id="Fill-110" points="349 535 373 535 373 511 349 511"></polygon>
            <polygon id="Fill-111" points="442 535 466 535 466 511 442 511"></polygon>
            <polygon id="Fill-112" points="488 535 534 535 534 511 488 511"></polygon>
            <polygon id="Fill-113" points="557 535 581 535 581 511 557 511"></polygon>
            <polygon id="Fill-114" points="186 559 232 559 232 535 186 535"></polygon>
            <polygon id="Fill-115" points="372 559 418 559 418 535 372 535"></polygon>
            <polygon id="Fill-116" points="488 559 512 559 512 535 488 535"></polygon>
            <polygon id="Fill-117" points="535 559 581 559 581 535 535 535"></polygon>
            <polygon id="Fill-118" points="186 581 256 581 256 557 186 557"></polygon>
            <polygon id="Fill-119" points="280 581 350 581 350 557 280 557"></polygon>
            <polygon id="Fill-120" points="372 581 396 581 396 557 372 557"></polygon>
            <polygon id="Fill-121" points="465 581 511 581 511 557 465 557"></polygon>
            <polygon id="Fill-122" points="535 581 581 581 581 557 535 557"></polygon>
            <polygon id="Fill-123" points="0 24 163 24 163 0 0 0"></polygon>
            <polygon id="Fill-124" points="0 140 24 140 24 24 0 24"></polygon>
            <polygon id="Fill-125" points="139 140 163 140 163 24 139 24"></polygon>
            <polygon id="Fill-126" points="0 163 163 163 163 139 0 139"></polygon>
            <polygon id="Fill-127" points="0 24 163 24 163 0 0 0"></polygon>
            <polygon id="Fill-128" points="0 48 24 48 24 24 0 24"></polygon>
            <polygon id="Fill-129" points="139 48 163 48 163 24 139 24"></polygon>
            <polygon id="Fill-130" points="0 70 24 70 24 46 0 46"></polygon>
            <polygon id="Fill-131" points="139 70 163 70 163 46 139 46"></polygon>
            <polygon id="Fill-132" points="0 94 24 94 24 70 0 70"></polygon>
            <polygon id="Fill-133" points="139 94 163 94 163 70 139 70"></polygon>
            <polygon id="Fill-134" points="0 117 24 117 24 93 0 93"></polygon>
            <polygon id="Fill-135" points="139 117 163 117 163 93 139 93"></polygon>
            <polygon id="Fill-136" points="0 140 24 140 24 116 0 116"></polygon>
            <polygon id="Fill-137" points="139 140 163 140 163 116 139 116"></polygon>
            <polygon id="Fill-138" points="0 163 163 163 163 139 0 139"></polygon>
            <polygon id="Fill-139" points="46 116 116 116 116 46 46 46"></polygon>
            <polygon id="Fill-140" points="418 24 581 24 581 0 418 0"></polygon>
            <polygon id="Fill-141" points="418 140 442 140 442 24 418 24"></polygon>
            <polygon id="Fill-142" points="557 140 581 140 581 24 557 24"></polygon>
            <polygon id="Fill-143" points="418 163 581 163 581 139 418 139"></polygon>
            <polygon id="Fill-144" points="418 24 581 24 581 0 418 0"></polygon>
            <polygon id="Fill-145" points="418 48 442 48 442 24 418 24"></polygon>
            <polygon id="Fill-146" points="557 48 581 48 581 24 557 24"></polygon>
            <polygon id="Fill-147" points="418 70 442 70 442 46 418 46"></polygon>
            <polygon id="Fill-148" points="557 70 581 70 581 46 557 46"></polygon>
            <polygon id="Fill-149" points="418 94 442 94 442 70 418 70"></polygon>
            <polygon id="Fill-150" points="557 94 581 94 581 70 557 70"></polygon>
            <polygon id="Fill-151" points="418 117 442 117 442 93 418 93"></polygon>
            <polygon id="Fill-152" points="557 117 581 117 581 93 557 93"></polygon>
            <polygon id="Fill-153" points="418 140 442 140 442 116 418 116"></polygon>
            <polygon id="Fill-154" points="557 140 581 140 581 116 557 116"></polygon>
            <polygon id="Fill-155" points="418 163 581 163 581 139 418 139"></polygon>
            <polygon id="Fill-156" points="465 116 535 116 535 46 465 46"></polygon>
            <polygon id="Fill-157" points="0 442 163 442 163 418 0 418"></polygon>
            <polygon id="Fill-158" points="0 558 24 558 24 442 0 442"></polygon>
            <polygon id="Fill-159" points="139 558 163 558 163 442 139 442"></polygon>
            <polygon id="Fill-160" points="0 581 163 581 163 557 0 557"></polygon>
            <polygon id="Fill-161" points="0 442 163 442 163 418 0 418"></polygon>
            <polygon id="Fill-162" points="0 466 24 466 24 442 0 442"></polygon>
            <polygon id="Fill-163" points="139 466 163 466 163 442 139 442"></polygon>
            <polygon id="Fill-164" points="0 489 24 489 24 465 0 465"></polygon>
            <polygon id="Fill-165" points="139 489 163 489 163 465 139 465"></polygon>
            <polygon id="Fill-166" points="0 512 24 512 24 488 0 488"></polygon>
            <polygon id="Fill-167" points="139 512 163 512 163 488 139 488"></polygon>
            <polygon id="Fill-168" points="0 535 24 535 24 511 0 511"></polygon>
            <polygon id="Fill-169" points="139 535 163 535 163 511 139 511"></polygon>
            <polygon id="Fill-170" points="0 559 24 559 24 535 0 535"></polygon>
            <polygon id="Fill-171" points="139 559 163 559 163 535 139 535"></polygon>
            <polygon id="Fill-172" points="0 581 163 581 163 557 0 557"></polygon>
            <polygon id="Fill-173" points="46 535 116 535 116 465 46 465"></polygon>
        </g>
        <rect id="Rectangle" stroke="#000000" stroke-width="15" x="1035.5" y="39.5" width="674" height="674"></rect>
    </g>
</svg>